<?xml version="1.0" encoding="UTF-8"?>
<!DOCTYPE svg PUBLIC "-//W3C//DTD SVG 1.1//EN" "http://www.w3.org/Graphics/SVG/1.1/DTD/svg11.dtd">
<!-- Creator: CorelDRAW -->
<svg xmlns="http://www.w3.org/2000/svg" xml:space="preserve" width="167.72mm" height="202.294mm" version="1.1" style="shape-rendering:geometricPrecision; text-rendering:geometricPrecision; image-rendering:optimizeQuality; fill-rule:evenodd; clip-rule:evenodd"
viewBox="0 0 9796.17 11815.6"
 xmlns:xlink="http://www.w3.org/1999/xlink"
 xmlns:xodm="http://www.corel.com/coreldraw/odm/2003">
 <defs>
  <style type="text/css">
   <![CDATA[
    .str3 {stroke:#FEFEFE;stroke-width:412.1;stroke-miterlimit:22.9256}
    .str1 {stroke:#373435;stroke-width:11.68;stroke-miterlimit:22.9256}
    .str2 {stroke:#373435;stroke-width:103.03;stroke-miterlimit:22.9256}
    .str0 {stroke:#373435;stroke-width:103.03;stroke-miterlimit:22.9256}
    .fil4 {fill:none}
    .fil0 {fill:#FEFEFE}
    .fil1 {fill:#606062}
    .fil2 {fill:#EDE3DF}
    .fil3 {fill:#3C2F2B}
   ]]>
  </style>
 </defs>
 <g id="Layer_x0020_1">
  <metadata id="CorelCorpID_0Corel-Layer"/>
  <path class="fil0 str0" d="M2442.22 69.47c664.69,-173.86 1637.78,928.3 1902.89,1941.83 265.11,1013.53 -58.81,1976.11 -723.51,2149.98 -664.69,173.86 -1418.44,-506.83 -1683.55,-1520.37 -265.11,-1013.53 -160.53,-2397.59 504.17,-2571.44z"/>
  <path class="fil0 str0" d="M5636.08 69.47c664.69,-173.86 1637.78,928.3 1902.89,1941.83 265.11,1013.53 -58.81,1976.11 -723.51,2149.98 -664.69,173.86 -1418.44,-506.83 -1683.55,-1520.37 -265.11,-1013.53 -160.53,-2397.59 504.17,-2571.44z"/>
  <path class="fil1 str1" d="M2633.43 997.49c495.41,-129.58 1220.68,691.88 1418.27,1447.29 197.59,755.41 -43.83,1472.85 -539.24,1602.43 -495.41,129.58 -1057.2,-377.75 -1254.8,-1133.16 -197.59,-755.41 -119.64,-1786.98 375.77,-1916.56z"/>
  <path class="fil1 str1" d="M5846.88 967.8c495.41,-129.58 1220.68,691.88 1418.27,1447.29 197.59,755.41 -43.84,1472.85 -539.25,1602.43 -495.41,129.58 -1057.2,-377.75 -1254.79,-1133.16 -197.59,-755.41 -119.64,-1786.98 375.77,-1916.56z"/>
  <path class="fil2 str2" d="M1889.06 2070.94l6018.05 0c1012.08,0 1837.55,825.46 1837.55,1837.55l0 6018.05c0,1012.08 -825.46,1837.55 -1837.55,1837.55l-6018.05 0c-1012.08,0 -1837.55,-825.46 -1837.55,-1837.55l0 -6018.05c0,-1012.08 825.46,-1837.55 1837.55,-1837.55z"/>
  <path class="fil0 str2" d="M2712.07 2714.59l4372.04 0c1110.87,0 2016.91,906.04 2016.91,2016.91l0 4372.04c0,1110.87 -906.04,2016.91 -2016.91,2016.91l-4372.04 0c-1110.87,0 -2016.91,-906.04 -2016.91,-2016.91l0 -4372.04c0,-1110.87 906.04,-2016.91 2016.91,-2016.91z"/>
  <path class="fil3 str2" d="M2997.31 2904.7l3801.56 0c1163.27,0 2112.03,948.77 2112.03,2112.03l0 3801.56c0,1163.27 -948.77,2112.03 -2112.03,2112.03l-3801.56 0c-1163.27,0 -2112.03,-948.77 -2112.03,-2112.03l0 -3801.56c0,-1163.27 948.77,-2112.03 2112.03,-2112.03z"/>
  <circle class="fil4 str3" cx="3003.38" cy="5386.63" r="1126.75"/>
  <circle class="fil4 str3" cx="6834.58" cy="5386.63" r="1126.75"/>
  <rect class="fil0 str1" x="3290.07" y="3317.52" width="983.35" height="327.78" rx="110.92" ry="110.92"/>
  <rect class="fil0 str1" x="5475.96" y="3317.52" width="983.35" height="327.78" rx="110.92" ry="110.92"/>
  <circle class="fil0 str1" cx="4898.09" cy="6227.33" r="147.49"/>
  <path class="fil0 str1" d="M4631.32 6998.84c90.94,0 173.02,-37.92 231.3,-98.8 9.61,-10.04 21.58,-15.15 35.48,-15.15 13.9,0 25.86,5.11 35.47,15.15 58.28,60.88 140.35,98.8 231.29,98.8 166.39,0 301.22,-126.21 318.34,-285.71 1.55,-14.36 -2.64,-27.32 -12.29,-38.07 -9.65,-10.74 -22.09,-16.29 -36.54,-16.29 -2.88,0 -5.76,0 -8.64,0 -25.15,0 -46.04,18.7 -48.81,43.7 -11.84,106.62 -102.25,189.55 -212.04,189.55 -109.78,0 -200.21,-82.92 -212.04,-189.55 -2.77,-24.99 -23.67,-43.7 -48.81,-43.7 -3.94,0 -7.89,0 -11.83,0 -25.15,0 -46.04,18.7 -48.81,43.7 -11.83,106.62 -102.25,189.55 -212.04,189.55 -109.78,0 -200.21,-82.92 -212.04,-189.55 -2.77,-24.99 -23.67,-43.7 -48.81,-43.7 -2.88,0 -5.76,0 -8.65,0 -14.44,0 -26.88,5.55 -36.53,16.29 -9.65,10.75 -13.84,23.71 -12.3,38.07 17.13,159.5 151.94,285.71 318.34,285.71z"/>
  <rect class="fil0 str1" x="7441.17" y="6772.28" width="983.35" height="163.89" rx="110.92" ry="55.46"/>
  <rect class="fil0 str1" x="1327.92" y="6772.28" width="983.35" height="163.89" rx="110.92" ry="55.46"/>
  <rect class="fil0 str1" transform="matrix(0.959218 0.282667 -0.141331 0.479601 7484.38 7052.13)" width="983.35" height="327.78" rx="110.92" ry="110.92"/>
  <rect class="fil0 str1" transform="matrix(0.963889 -0.266304 0.13315 0.481936 1323.85 7321.67)" width="983.35" height="327.78" rx="110.92" ry="110.92"/>
 </g>
</svg>
